<svg xmlns="http://www.w3.org/2000/svg" xmlns:xlink="http://www.w3.org/1999/xlink" fill="none" version="1.1" width="300" height="297" viewBox="0 0 300 297"><g><g><g><rect x="0" y="0" width="200" height="200.00001525878906" rx="0" fill="#FFFFFF" fill-opacity="1"/><rect x="1" y="1" width="198" height="198.00001525878906" rx="0" fill-opacity="0" stroke-opacity="1" stroke="#000000" fill="none" stroke-width="2"/></g><g><g transform="matrix(1,0,-0.36667168140411377,0.9303504228591919,20.900285840034485,3.970025897026062)"><rect x="116.8945083618164" y="57" width="6.211002349853516" height="92.43828582763672" rx="0" fill="#000000" fill-opacity="1"/></g><g transform="matrix(-1,0,0.36667168140411377,0.9303504228591919,225.31073558330536,3.970025897026062)"><rect x="123.10551071166992" y="57" width="6.211002349853516" height="92.43828582763672" rx="0" fill="#000000" fill-opacity="1"/></g><g><rect x="100.74589920043945" y="104.14137649536133" width="37.266014099121094" height="6.202812671661377" rx="0" fill="#000000" fill-opacity="1"/></g></g><g><g transform="matrix(1,0,-0.36667168140411377,0.9303504228591919,20.900285840034485,3.970025897026062)"><rect x="97.3945083618164" y="57.5" width="5.211002349853516" height="91.43828582763672" rx="0" fill-opacity="0" stroke-opacity="1" stroke="#000000" fill="none" stroke-width="1"/></g></g><g><g transform="matrix(1,0,-0.36667168140411377,0.9303504228591919,20.900285840034485,3.970025897026062)"><rect x="77.3945083618164" y="57.5" width="5.211002349853516" height="91.43828582763672" rx="0" fill-opacity="0" stroke-opacity="1" stroke="#000000" fill="none" stroke-width="1"/></g></g></g><g><g><rect x="100" y="97" width="200" height="200.00001525878906" rx="0" fill="#FFFFFF" fill-opacity="1"/><rect x="101" y="98" width="198" height="198.00001525878906" rx="0" fill-opacity="0" stroke-opacity="1" stroke="#000000" fill="none" stroke-width="2"/></g><g><g><path d="M212.4986,228.6304L201.297,197.9013L178.9854,197.9013L167.7917,228.62869999999998L151,228.6303L150,228.6304L150,156L177.14260000000002,156L182.6719,171.2034L183.0356,172.2034L175.6679,172.2034L172.2853,162.91378L156.91683,162.91378L156.91683,221.7154L162.9458,221.7154L174.1332,190.9917L206.13,190.9874L219.4922,227.6304L219.8569,228.6304L212.4986,228.6304ZM178.2854,196.9013L167.0917,227.6288L151,227.6303L151,157L176.4422,157L181.6078,171.2034L176.368,171.2034L172.9854,161.91378L155.91683,161.91378L155.91683,222.7154L163.6459,222.7154L174.8333,191.9916L205.4302,191.9875L218.4278,227.6304L213.1984,227.6304L202.2365,197.5588L201.9968,196.9013L178.2854,196.9013Z" fill-rule="evenodd" fill="#000000" fill-opacity="1"/></g><g><path d="M150,239L250.103,239L251,239L251,165.2896L191.7505,165.28961L188.3678,156L180.9997,156L186.8998,172.2034L244.0832,172.2034L244.0832,232.08620000000002L150,232.08620000000002L150,239Z" fill-rule="evenodd" fill="#000000" fill-opacity="1"/></g><g><path d="M207.7975020690918,228.6303060974121L205.2800020690918,221.7166060974121L186.9382120690918,221.7166060974121L183.8608320690918,213.2651860974121L202.2026020690918,213.2651860974121L199.6849020690918,206.3514060974121L180.0981420690918,206.3514060974121L176.9629020690918,214.5566960974121L182.0847520690918,228.6303060974121L207.7975020690918,228.6303060974121Z" fill-rule="evenodd" fill="#000000" fill-opacity="1"/></g><g><path d="M213.0357410961914,198.08127272949218L210.4235610961914,190.9114227294922L228.9836610961914,190.9114227294922L231.5958610961914,198.08127272949218L213.0357410961914,198.08127272949218ZM218.6332610961914,213.44522272949217L216.0210910961914,206.2754227294922L234.5811610961914,206.2754227294922L237.1933610961914,213.44522272949217L218.6332610961914,213.44522272949217Z" fill-rule="evenodd" fill="#000000" fill-opacity="1"/></g></g><g><g><path d="M212.4986,228.6304L201.297,197.9013L178.9854,197.9013L167.7917,228.62869999999998L151,228.6303L150,228.6304L150,156L177.14260000000002,156L182.6719,171.2034L183.0356,172.2034L175.6679,172.2034L172.2853,162.91378L156.91683,162.91378L156.91683,221.7154L162.9458,221.7154L174.1332,190.9917L206.13,190.9874L219.4922,227.6304L219.8569,228.6304L212.4986,228.6304ZM178.2854,196.9013L167.0917,227.6288L151,227.6303L151,157L176.4422,157L181.6078,171.2034L176.368,171.2034L172.9854,161.91378L155.91683,161.91378L155.91683,222.7154L163.6459,222.7154L174.8333,191.9916L205.4302,191.9875L218.4278,227.6304L213.1984,227.6304L202.2365,197.5588L201.9968,196.9013L178.2854,196.9013Z" fill-rule="evenodd" fill="#000000" fill-opacity="1"/></g><g><path d="M150,239L250.103,239L251,239L251,165.2896L191.7505,165.28961L188.3678,156L180.9997,156L186.8998,172.2034L244.0832,172.2034L244.0832,232.08620000000002L150,232.08620000000002L150,239Z" fill-rule="evenodd" fill="#000000" fill-opacity="1"/></g><g><path d="M207.7975020690918,228.6303060974121L205.2800020690918,221.7166060974121L186.9382120690918,221.7166060974121L183.8608320690918,213.2651860974121L202.2026020690918,213.2651860974121L199.6849020690918,206.3514060974121L180.0981420690918,206.3514060974121L176.9629020690918,214.5566960974121L182.0847520690918,228.6303060974121L207.7975020690918,228.6303060974121Z" fill-rule="evenodd" fill="#000000" fill-opacity="1"/></g><g><path d="M213.0357410961914,198.08127272949218L210.4235610961914,190.9114227294922L228.9836610961914,190.9114227294922L231.5958610961914,198.08127272949218L213.0357410961914,198.08127272949218ZM218.6332610961914,213.44522272949217L216.0210910961914,206.2754227294922L234.5811610961914,206.2754227294922L237.1933610961914,213.44522272949217L218.6332610961914,213.44522272949217Z" fill-rule="evenodd" fill="#000000" fill-opacity="1"/></g></g></g></g></svg>